<svg xmlns="http://www.w3.org/2000/svg" width="1193.046" height="1474.626" viewBox="0 0 1193.046 1474.626">
  <path id="Path_268" data-name="Path 268" d="M909.313-193.943c-40.722-34.7-103.281-30.416-151.7-7.585s-87.683,60.818-131.243,91.892C520.749-34.277,390.187-.333,260.744,10.032c-32.325,2.59-64.913,3.82-96.621,10.588C118.706,30.313,42.587,41.433,7.211,71.422L0,549.122,67.511,1113.7c925.461,343.058,1282.969-16.116,1062.294-246.96S827.541,518.768,847.749,294.177,947.18,64.138,957.07-5.663a298.269,298.269,0,0,0-3.779-104.6c-6.775-31.347-19.539-62.85-43.978-83.677" transform="translate(0 219.327)" fill="#dfedc5"/>
</svg>
