<svg xmlns="http://www.w3.org/2000/svg" width="220.018" height="349.594" viewBox="0 0 220.018 349.594">
  <g id="Group_26" data-name="Group 26" transform="translate(-1516.224 28.123)">
    <g id="Group_7" data-name="Group 7" transform="translate(683.942 -1218.404) rotate(34)">
      <path id="Path_169" data-name="Path 169" d="M74.237-55.783c-.086.324-1.109.351-2.451-.314A13.361,13.361,0,0,1,67.7-59.549c-2.4-3-4.711-6.024-5.31-6.691-.553-.65-2.9-3.4-5.212-6.109-2.255-2.665-4.3-5.251-3.848-5.669.6-.567,3.1,1.593,5.561,4.107s4.845,5.41,5.4,6.085c.563.624,3.147,3.815,5.229,6.811a22.241,22.241,0,0,0,3.144,3.552c.93.846,1.686,1.3,1.574,1.68" transform="translate(1639.3 685.574) rotate(-132)"/>
      <path id="Path_170" data-name="Path 170" d="M71.853-59.051c-.135.131-.642-.212-1.554-.7a27.644,27.644,0,0,0-4.044-1.666,33.718,33.718,0,0,1-6.095-2.608,49.751,49.751,0,0,1-6.4-4.354c-2.07-1.65-4.113-3.295-6.06-5.061a23.418,23.418,0,0,1-4.788-5.812,10.963,10.963,0,0,1-1.246-3.222,5.759,5.759,0,0,1,.269-3.24,6.186,6.186,0,0,1,2.694-3,7.78,7.78,0,0,1,3.581-1.058,10.145,10.145,0,0,1,5.748,1.743,28.5,28.5,0,0,1,5.292,4.613,47.876,47.876,0,0,1,4.666,5.842c5.675,8.3,8.008,17.443,7.466,17.566-.83.3-3.732-8.467-9.368-16.238a50.678,50.678,0,0,0-4.539-5.481,27.387,27.387,0,0,0-4.837-4.186A7.807,7.807,0,0,0,48.327-87.3a5.315,5.315,0,0,0-2.441.71A3.763,3.763,0,0,0,44.251-84.8c-.443.956-.169,2.553.854,4.335,1.882,3.577,6.16,6.907,10.118,10.257a56.912,56.912,0,0,0,5.983,4.394,42.091,42.091,0,0,0,5.653,2.885,15.788,15.788,0,0,1,3.983,2.4c.842.771,1.136,1.358,1.011,1.48" transform="translate(1638.493 701.469) rotate(-132)"/>
      <path id="Path_171" data-name="Path 171" d="M29.755-80.316c0-.341,1.281-.6,3.277-.642a34.554,34.554,0,0,1,7.361.865,70.166,70.166,0,0,1,11.85,4c1.177.457,6.1,2.663,10.585,4.935S71.522-66.8,71.3-66.236c-.31.779-4.849-.754-9.454-2.814s-9.413-4.311-10.563-4.757a97.551,97.551,0,0,0-11.438-4.015c-2.543-.7-5.059-1.16-6.943-1.517-1.882-.318-3.144-.587-3.147-.977" transform="translate(1652.403 704.222) rotate(-132)"/>
      <path id="Path_172" data-name="Path 172" d="M63.754-60.29c.075-.7,3.9-.6,7.9.188a42.863,42.863,0,0,1,8.936,2.792,33.151,33.151,0,0,1,7.653,4.529c3.061,2.423,5.088,5.508,4.59,5.863-.665.5-3.01-1.978-5.987-4.011a43.323,43.323,0,0,0-7.233-4.111,60.642,60.642,0,0,0-8.465-2.783c-3.793-1-7.482-1.709-7.4-2.469" transform="translate(1644.956 666.904) rotate(-132)"/>
      <path id="Path_173" data-name="Path 173" d="M90.284-54.161c-.094.361-2.3-.02-5.541,1.228-1.631.557-3.512,1.45-5.777,2.149a30.272,30.272,0,0,1-7.313,1.291A31.742,31.742,0,0,1,57.28-52.118a9.556,9.556,0,0,1-4.762-3.744,5.317,5.317,0,0,1-.551-3.932,4.153,4.153,0,0,1,.754-1.515,5,5,0,0,1,1.9-1.415,18.5,18.5,0,0,1,5.3-1.26,31.274,31.274,0,0,1,13.534,2.107c4.439,1.631,8.442,3.628,11.45,5.057,2.992,1.462,4.9,2.522,4.778,2.8-.163.383-2.272-.2-5.41-1.328-3.147-1.091-7.284-2.9-11.574-4.337A30.663,30.663,0,0,0,60.173-61.5a16.851,16.851,0,0,0-4.525,1.042c-1.028.461-1.179.954-1.293,1.3a2.859,2.859,0,0,0,.334,2.084,7.282,7.282,0,0,0,3.6,2.669,30.941,30.941,0,0,0,13.263,2.576,31.523,31.523,0,0,0,6.846-.948c2.113-.528,4.089-1.3,5.881-1.713a11.462,11.462,0,0,1,4.439-.345c1.071.177,1.607.506,1.566.673" transform="translate(1650.261 677.598) rotate(-132)"/>
      <path id="Path_174" data-name="Path 174" d="M84.72-35.582c-.4.595-5.49-2.834-9.256-8.1a39.257,39.257,0,0,1-4.511-7.992,46.17,46.17,0,0,1-1.788-5.178c-.206-.7-.734-2.582-1.246-5.016s-1.034-5.394-1.521-8.263c-.963-5.751-1.711-11.177-1.111-11.289.818-.157,2.17,5.151,3.389,10.851.589,2.867,1.187,5.781,1.68,8.173.506,2.374.987,4.18,1.183,4.857a47.025,47.025,0,0,0,1.717,4.9,43.982,43.982,0,0,0,4.115,7.612c3.334,5.1,7.8,8.848,7.349,9.446" transform="translate(1629.332 679.265) rotate(-132)"/>
      <path id="Path_175" data-name="Path 175" d="M82.05-59.87c.648.292-.367,3.234-.487,6.46a24.058,24.058,0,0,0,.763,7.3c.151.742,1.207,3.842,2.233,6.9s1.489,6.146.871,6.262c-.806.151-1.8-2.557-3.049-5.463a52.338,52.338,0,0,1-2.443-7.056,21.155,21.155,0,0,1-.7-8.138c.41-3.615,2.143-6.6,2.816-6.258" transform="translate(1635.702 655.386) rotate(-132)"/>
      <path id="Path_176" data-name="Path 176" d="M80.691-34.061c-.308-.1.3-2.626,2.166-6.061,1.825-3.448,4.959-7.627,7.867-11.962a48.331,48.331,0,0,0,3.819-6.691,25.282,25.282,0,0,0,1.97-6.583,7.572,7.572,0,0,0-.648-4.786,4.154,4.154,0,0,0-1.87-1.678,2.651,2.651,0,0,0-2.135-.043c-.954.353-2.19,1.8-3.5,3.306a33.826,33.826,0,0,0-6.287,12.121,36.17,36.17,0,0,0-1.291,12.816c.265,3.475.854,5.722.522,5.824-.351.124-1.462-2.019-2.115-5.63a32.2,32.2,0,0,1,.646-13.62,34.386,34.386,0,0,1,6.6-13.088c.706-.83,1.379-1.586,2.053-2.282a7.981,7.981,0,0,1,2.378-1.723,5.131,5.131,0,0,1,4.111.049,6.617,6.617,0,0,1,3.032,2.682,9.952,9.952,0,0,1,.985,6.368,26.7,26.7,0,0,1-2.206,7.286,46.806,46.806,0,0,1-4.125,6.982c-3.1,4.39-6.334,8.338-8.414,11.489-2.107,3.126-3.175,5.369-3.556,5.226" transform="translate(1625.441 665.067) rotate(-132)"/>
      <path id="Path_177" data-name="Path 177" d="M86.819-15.493c-.267.108-1.411-2.6-.94-6.892.414-4.274,2.631-9.652,5.657-14.548,2.994-4.892,6.238-9.694,7.906-13.973a26.613,26.613,0,0,0,1.582-5.616,3.232,3.232,0,0,0-.383-2.547,3.249,3.249,0,0,0-2.115-1.213,5.026,5.026,0,0,0-4.329,1.4,21.369,21.369,0,0,0-4.062,5.538,45.031,45.031,0,0,0-3.21,7.037A49.042,49.042,0,0,0,84.2-32.635c-.224,3.756,0,6.234-.339,6.279-.373.057-1.12-2.4-1.264-6.3a41.674,41.674,0,0,1,2.131-14.4,43.669,43.669,0,0,1,3.263-7.478,22.958,22.958,0,0,1,4.574-6.23,8.889,8.889,0,0,1,3.183-1.807,6.9,6.9,0,0,1,3.226-.151,5.733,5.733,0,0,1,3.675,2.219,4.9,4.9,0,0,1,.775,1.711,7.159,7.159,0,0,1,.063,2.6,28.484,28.484,0,0,1-1.729,6.215c-1.813,4.617-5.2,9.539-8.236,14.272-3.051,4.709-5.3,9.652-6.042,13.563-.795,3.907-.23,6.564-.665,6.65" transform="translate(1631.346 654.794) rotate(-132)"/>
      <path id="Path_178" data-name="Path 178" d="M73.191-40.2c.147-.677,4.441.11,8.487,2.308A35.855,35.855,0,0,1,90.02-31.64a34.214,34.214,0,0,1,5.948,7.828c2.125,3.736,2.961,7.7,2.4,7.845-.824.241-2.192-3.314-4.394-6.668a41.965,41.965,0,0,0-5.693-7.249,43.27,43.27,0,0,0-7.739-5.969C76.886-38.121,73-39.45,73.191-40.2" transform="translate(1653.417 647.073) rotate(-132)"/>
      <path id="Path_179" data-name="Path 179" d="M101.08-30.2c-.055.375-2.728.171-6.8.318a131.076,131.076,0,0,0-15.168,1.574,60.247,60.247,0,0,1-8.669.962,13.985,13.985,0,0,1-8.153-2.327,8.424,8.424,0,0,1-3.717-5.979,7.671,7.671,0,0,1,.71-4.182A6.09,6.09,0,0,1,62.327-42.8a13.88,13.88,0,0,1,2.835-.795c.979-.2,2.049-.4,3.189-.573a36.182,36.182,0,0,1,15.749.728,24.042,24.042,0,0,1,7.253,3.536,23.891,23.891,0,0,1,4.829,4.847c2.306,3.1,4.031,4.76,3.879,5-.247.381-2.508-1.075-5.1-3.948a26.337,26.337,0,0,0-4.784-4.215,23.657,23.657,0,0,0-6.723-2.989,35.611,35.611,0,0,0-14.729-.493,30.717,30.717,0,0,0-5.4,1.175,3.586,3.586,0,0,0-1.823,1.782,5.162,5.162,0,0,0-.461,2.832,5.934,5.934,0,0,0,2.684,4.2,11.666,11.666,0,0,0,6.729,1.907,64.964,64.964,0,0,0,8.332-.812,87.121,87.121,0,0,1,15.5-.883c4.186.222,6.84.956,6.786,1.3" transform="translate(1659.802 660.298) rotate(-132)"/>
      <path id="Path_180" data-name="Path 180" d="M82.165-25.039c.394-.585,1.9.039,3.385,1a15.737,15.737,0,0,1,3.114,2.708,10.918,10.918,0,0,1,2.164,3.393c.669,1.684.5,3.426-.12,3.432-.828.029-1.254-1.252-1.984-2.455a17.8,17.8,0,0,0-1.888-2.7c-.228-.277-1.434-1.419-2.684-2.5-1.234-1.095-2.412-2.249-1.988-2.879" transform="translate(1658.54 630.947) rotate(-132)"/>
      <path id="Path_181" data-name="Path 181" d="M102.815-13.164c-.09.706-9.841-.469-19.788-3.532-2.486-.75-4.984-1.589-7.355-2.471a24.818,24.818,0,0,1-6.684-3.222,7.964,7.964,0,0,1-2.27-2.739,6.8,6.8,0,0,1-.7-3.024,5.068,5.068,0,0,1,1.676-3.779A6.742,6.742,0,0,1,71.112-33.5a18.985,18.985,0,0,1,5.632.065A33.675,33.675,0,0,1,90.117-28.59a31.979,31.979,0,0,1,9.59,9.111c1.988,2.955,2.7,5.182,2.461,5.288-.41.2-1.572-1.741-3.746-4.329a36.458,36.458,0,0,0-9.505-8.089A33.247,33.247,0,0,0,76.43-30.962a17.039,17.039,0,0,0-4.872-.092,4.262,4.262,0,0,0-2.206.95,2.558,2.558,0,0,0-.85,1.98,4.845,4.845,0,0,0,2.037,3.777,23.765,23.765,0,0,0,6,2.875c2.321.887,4.762,1.75,7.188,2.545,9.694,3.25,19.207,5.02,19.091,5.763" transform="translate(1662.86 647.856) rotate(-132)"/>
      <path id="Path_182" data-name="Path 182" d="M87.053-4.007c-.161.037-.5-.65-.691-1.97a12.461,12.461,0,0,1,.567-5.514,14.2,14.2,0,0,1,4.607-6.538c2.263-1.9,4.886-3.363,7.233-5.178a37.763,37.763,0,0,0,6.413-6.026,22.813,22.813,0,0,0,3.97-6.788,6.4,6.4,0,0,0-.194-5.379,3.551,3.551,0,0,0-2.147-1.77,5.035,5.035,0,0,0-2.928.281,14.061,14.061,0,0,0-4.853,3c-3.355,3.055-6.315,8.118-7.9,13.438A81.756,81.756,0,0,0,88.377-11.6c-.445,4.062-.748,6.737-1.062,6.721-.406-.02-.62-2.7-.54-6.837a63.1,63.1,0,0,1,2.129-15.4c1.562-5.661,4.655-11.148,8.44-14.611a16.377,16.377,0,0,1,5.734-3.512,7.542,7.542,0,0,1,4.352-.322,6.067,6.067,0,0,1,3.677,2.914,7.545,7.545,0,0,1,1.013,3.428,10.818,10.818,0,0,1-.6,3.983c-1.79,5.247-6.281,10.3-11.362,13.907-2.527,1.862-5.22,3.279-7.323,4.912a13.311,13.311,0,0,0-4.39,5.494c-1.621,3.9-.958,6.876-1.4,6.919" transform="translate(1641.193 641.142) rotate(-132)"/>
      <path id="Path_183" data-name="Path 183" d="M102.006-23.426c-.41.078-.795-2.639-3.2-5.812-2.343-3.212-6.77-6.448-12.062-8.336C81.465-39.6,75.733-40.72,71-42.692a8.427,8.427,0,0,1-3.144-2.37,5.807,5.807,0,0,1-1.268-3.346,4.547,4.547,0,0,1,.873-2.828,5.27,5.27,0,0,1,1.334-1.275,6.568,6.568,0,0,1,4.066-1.075,18.9,18.9,0,0,1,6.063,1.7,44.279,44.279,0,0,1,6.736,3.565,44.517,44.517,0,0,1,6.428,5.178,40.148,40.148,0,0,1,8.538,11.991c1.631,3.6,2.092,6.152,1.837,6.222-.432.139-1.378-2.2-3.267-5.5a46.494,46.494,0,0,0-8.7-11.038,45.462,45.462,0,0,0-6.16-4.8,43.967,43.967,0,0,0-6.36-3.322A17.07,17.07,0,0,0,72.754-51.1a4.034,4.034,0,0,0-2.576.642,2.29,2.29,0,0,0-1.107,1.976,3.344,3.344,0,0,0,.752,1.89,6,6,0,0,0,2.233,1.64C76.214-43.2,82.171-41.948,87.6-39.749c5.512,2.086,10.326,5.853,12.551,9.588,2.319,3.74,2.17,6.754,1.858,6.735" transform="translate(1648.254 660.272) rotate(-132)"/>
      <path id="Path_184" data-name="Path 184" d="M111.185-31.234c.106.367-1.168.924-2.885,2.051a27.14,27.14,0,0,0-5.685,5.124,74.138,74.138,0,0,0-7.39,11.136A72.72,72.72,0,0,0,90.172-1.348C88.4,3.836,88.026,8.989,87.419,8.983c-.4-.008-.7-1.34-.663-3.4A32.039,32.039,0,0,1,87.949-2.01a58.375,58.375,0,0,1,5.1-12.1,60.44,60.44,0,0,1,7.816-11.5,20.889,20.889,0,0,1,6.654-5c2.078-.9,3.575-.963,3.662-.624" transform="translate(1651.125 631.568) rotate(-132)"/>
      <path id="Path_185" data-name="Path 185" d="M28.83-66.172c-.149-.3,1.546-1.4,4.346-2.724a54.833,54.833,0,0,1,10.987-3.522A63.462,63.462,0,0,1,56.39-73.766c1.8-.082,3.387.031,4.655.082a26.3,26.3,0,0,1,2.7.186,65.02,65.02,0,0,1,18.027,4.14,54.412,54.412,0,0,1,9.625,4.819c2.386,1.623,3.823,2.828,3.656,3.069-.241.355-1.951-.41-4.448-1.676a95.339,95.339,0,0,0-9.639-4.038,72,72,0,0,0-17.435-3.854,74.658,74.658,0,0,0-18.909.911,87.4,87.4,0,0,0-10.853,2.745c-2.855.946-4.76,1.568-4.935,1.209" transform="translate(1658.126 700.279) rotate(-132)"/>
      <path id="Path_186" data-name="Path 186" d="M52.763-77.57c-.4.583-2.019-.2-3.5-1.385A22.747,22.747,0,0,1,46.2-81.987a21.308,21.308,0,0,1-2.408-3.271c-.9-1.519-1.434-3.1-.9-3.391.738-.4,1.764.8,2.8,2.072,1.024,1.285,2.088,2.657,2.363,2.959s1.533,1.652,2.757,2.916c1.207,1.281,2.378,2.512,1.945,3.132" transform="translate(1638.524 699.982) rotate(-132)"/>
      <path id="Path_187" data-name="Path 187" d="M64.457-58.921c-.257,1.4-5.81.1-6.5-.029-.343-.063-1.823-.314-3.189-.7a3.953,3.953,0,0,1-2.082-1.1c-.565-.7-.228-1.3.053-1.315.818.1.936.047,2.443.131a30.26,30.26,0,0,1,3.22.549c.689.126,6.326.979,6.054,2.461" transform="translate(1651.347 675.876) rotate(-132)"/>
      <path id="Path_188" data-name="Path 188" d="M86-66.793c-.659-.277-.616-1.126-.5-1.968s.328-1.7.353-1.9.114-1.02.249-1.813.353-1.568.963-1.635c.826-.088,1.248.734,1.354,1.662a7.29,7.29,0,0,1-.116,2.123,7.98,7.98,0,0,1-.551,2.184c-.4.916-1.058,1.637-1.75,1.348" transform="translate(1621.445 660.002) rotate(-132)"/>
      <path id="Path_189" data-name="Path 189" d="M90.172-55.782c-1.252-.685.569-3.432.763-3.787s1.587-3.077,2.659-2.492c1.464.8-.3,3.322-.489,3.677s-1.611,3.322-2.934,2.6" transform="translate(1627.236 649.215) rotate(-132)"/>
      <path id="Path_190" data-name="Path 190" d="M73.486-49.774c-.094,1.425-3.006.748-3.359.7s-3.1-.343-2.851-1.54c.338-1.633,2.841-.958,3.189-.91s3.12.249,3.022,1.752" transform="translate(1649.173 658.566) rotate(-132)"/>
      <path id="Path_191" data-name="Path 191" d="M72.21-40.788c.147.708-1.513,1.266-3.252,1.376-1.739.128-3.463.051-3.83.08A30.19,30.19,0,0,0,61.761-39c-1.417.2-2.663.691-3.02.2-.512-.671.742-1.913,2.435-2.445a13.2,13.2,0,0,1,3.852-.559,33.083,33.083,0,0,1,3.883.055c1.638.139,3.147.23,3.3.96" transform="translate(1661.791 658.386) rotate(-132)"/>
      <path id="Path_192" data-name="Path 192" d="M97.8-38.021c.553.449-.583,2.3-1.862,4.2-1.37,1.941-2.714,3.842-3.014,4.27s-1.564,2.329-2.8,4.056a19.467,19.467,0,0,0-1.421,2.223c-.326.591-.51,1.052-.822,1.067-.4.027-.757-.538-.73-1.468a7.079,7.079,0,0,1,1-3.04,45.356,45.356,0,0,1,2.73-4.237,49.424,49.424,0,0,1,3.187-4.274c1.507-1.78,3.148-3.271,3.73-2.8" transform="translate(1646.086 635.587) rotate(-132)"/>
      <path id="Path_193" data-name="Path 193" d="M71.662-28.916c.181-.687,3.155-.192,6.215.724a68.617,68.617,0,0,1,6.85,2.506,63.45,63.45,0,0,1,6.234,2.916c2.629,1.413,4.925,3.03,4.627,3.556-.41.732-2.959-.32-5.64-1.472-2.757-1.215-5.5-2.423-6.158-2.71l-6.654-2.578c-2.908-1.132-5.669-2.211-5.475-2.941" transform="translate(1662.412 640.959) rotate(-132)"/>
      <path id="Path_194" data-name="Path 194" d="M72.408-68.567c.718-.033,1.134,2.69,1.748,5.52.577,2.841,1.383,5.795,1.589,6.432.19.642,1.1,3.367,2.127,5.883.983,2.531,2.066,4.864,1.536,5.184-.7.432-2.372-1.676-3.646-4.225a36.6,36.6,0,0,1-2.378-6.107,38.791,38.791,0,0,1-1.531-6.77c-.389-3.018-.192-5.887.553-5.918" transform="translate(1634.282 666.278) rotate(-132)"/>
      <path id="Path_195" data-name="Path 195" d="M78.8-41.061c-.338.012-.665-2.394-.522-6.065.1-3.671.781-8.544,1.213-13.495.447-4.945.414-10.019-.553-13.94a11.149,11.149,0,0,0-1.8-4.529,3.352,3.352,0,0,0-1.843-1.35,2.7,2.7,0,0,0-2.041.328,5,5,0,0,0-2.317,3.3,23.423,23.423,0,0,0-.375,6.095,49.158,49.158,0,0,0,.7,6.825,54.819,54.819,0,0,0,3.52,11.858c1.285,3.075,2.347,5,2.066,5.182-.326.214-1.845-1.468-3.512-4.49a43.042,43.042,0,0,1-4.352-12.121,46.747,46.747,0,0,1-.871-7.158,24.634,24.634,0,0,1,.414-6.813,7.485,7.485,0,0,1,3.52-4.853,5.24,5.24,0,0,1,3.85-.555A5.9,5.9,0,0,1,79.11-80.6a13.415,13.415,0,0,1,2.264,5.479A43.831,43.831,0,0,1,81.816-60.4c-.569,5.057-1.454,9.839-1.917,13.408-.5,3.563-.7,5.918-1.1,5.928" transform="translate(1626.284 678.136) rotate(-132)"/>
      <path id="Path_196" data-name="Path 196" d="M74.753-51.257c-.7.128-1.525-2.784-2.088-5.936s-.875-6.53-.95-7.266-.422-3.9-.483-6.892.122-5.81.726-5.83c.838-.027,1.26,2.735,1.589,5.673.279,3.04.559,6.067.626,6.791s.44,3.928.8,7.186c.31,3.144.522,6.136-.222,6.273" transform="translate(1628.406 672.141) rotate(-132)"/>
      <path id="Path_224" data-name="Path 224" d="M97.278,40.826c-.373.11-1.566-3.1-3.475-7.939-1.085-2.37-2.111-5.249-3.642-8.179-.736-1.478-1.442-3.038-2.255-4.586-.852-1.531-1.719-3.093-2.6-4.664A130.033,130.033,0,0,0,73.654-1.532c-1.827-2.4-3.662-4.335-5.069-5.922-.706-.791-1.325-1.478-1.835-2.047-.542-.54-.969-.963-1.264-1.256-.591-.587-1.67-1.656-3.1-3.077S59.006-16.865,56.9-18.77c-2.155-1.847-4.656-3.775-7.264-5.773-2.7-1.87-5.441-3.928-8.349-5.636A145.289,145.289,0,0,0,25.351-38.8c-4.447-1.945-7.366-3.236-7.262-3.54.126-.379,3.232.428,7.886,2.062A104.479,104.479,0,0,1,42.5-32.155c3,1.684,5.814,3.744,8.583,5.632,2.675,2.013,5.233,3.972,7.431,5.852,2.147,1.937,4.136,3.573,5.583,5.041l3.155,3.142c.3.3.738.73,1.289,1.277.524.577,1.154,1.277,1.88,2.08C71.861-7.518,73.736-5.546,75.6-3.1A120.251,120.251,0,0,1,87.345,14.306c.856,1.621,1.707,3.228,2.541,4.806.787,1.6,1.464,3.206,2.159,4.733,1.448,3.03,2.357,6.008,3.279,8.477,1.589,5.035,2.284,8.412,1.954,8.5" transform="translate(1687.469 687.759) rotate(-132)"/>
      <path id="Path_225" data-name="Path 225" d="M13.6-56.76c-.13-.09.061-.7.822-1.507a7.677,7.677,0,0,1,4.04-2.062,10.845,10.845,0,0,1,6.448.767,21.12,21.12,0,0,1,6.081,4.2,56.729,56.729,0,0,1,8.846,11.071c2.2,3.5,3.6,6.328,4.131,7.327s1.876,3.677,3.509,7.147,3.562,7.722,5.555,11.762A115.49,115.49,0,0,0,58.846-7.47c1.682,2.755,2.914,4.486,2.645,4.709-.281.243-1.935-1.183-3.966-3.8a68,68,0,0,1-6.558-10.435c-2.141-4.046-4.113-8.3-5.744-11.752s-2.934-6.093-3.454-7.076c-1.024-1.941-5.638-11.154-12.4-17.853a20.589,20.589,0,0,0-5.314-4,9.852,9.852,0,0,0-5.351-1.054c-3.3.286-4.81,2.241-5.11,1.966" transform="translate(1677.44 702.646) rotate(-132)"/>
      <path id="Path_226" data-name="Path 226" d="M9.542-46.094c-.194-.31.19-.863-.165-1.949a10.161,10.161,0,0,0-.962-1.933,5.258,5.258,0,0,1-.746-3.412A6.9,6.9,0,0,1,12.032-58.3a10.6,10.6,0,0,1,3.7-.785,12.832,12.832,0,0,1,3.5.326A16.135,16.135,0,0,1,24.391-56.5c3.216,2.149,5.52,4.733,5.163,5.161-.555.683-3.33-1.458-6.358-3.175a17.031,17.031,0,0,0-4.5-1.813,10.942,10.942,0,0,0-2.851-.288A8.462,8.462,0,0,0,13.005-56,4.928,4.928,0,0,0,9.97-52.98c-.436,1.2.969,2.9,1.014,4.715a2.672,2.672,0,0,1-.632,1.947c-.377.367-.7.363-.81.224" transform="translate(1682.29 705.985) rotate(-132)"/>
      <path id="Path_227" data-name="Path 227" d="M14.946-21.093c.078.126-.416.648-1.593.714a5.165,5.165,0,0,1-4.105-2.111A11.455,11.455,0,0,1,7.4-28.576c-.182-2.184-.31-4.458-1.421-6.067-1.085-1.672-3.352-2.875-4.876-5.19A6,6,0,0,1,.046-43.889,5.87,5.87,0,0,1,1.971-47.3a36.785,36.785,0,0,1,4.354-3.189A23.449,23.449,0,0,1,9.1-52.007,12.947,12.947,0,0,1,12.126-53a10.288,10.288,0,0,1,5.418.44c3.622,1.307,7.875,2.906,12.009,4.747a60.418,60.418,0,0,1,10.6,5.9c2.637,1.919,4.093,3.487,3.909,3.7-.281.336-2.033-.806-4.784-2.359a96.937,96.937,0,0,0-10.638-5.114c-4.056-1.668-8.422-3.267-11.862-4.505a8.477,8.477,0,0,0-6.646.432,20.105,20.105,0,0,0-2.467,1.372,36.523,36.523,0,0,0-3.972,2.9,3,3,0,0,0-.516,4.319c.973,1.678,3.2,2.914,4.751,5.235,1.529,2.445,1.442,5.114,1.538,7.219a10.88,10.88,0,0,0,1.107,5.282,4.7,4.7,0,0,0,2.847,2.1c.871.2,1.446.039,1.527.232" transform="translate(1691.424 707.616) rotate(-132)"/>
      <path id="Path_228" data-name="Path 228" d="M67.312-25.982c-.175.308-2.092-.916-5.037.163a13.51,13.51,0,0,0-4.433,2.977,57.948,57.948,0,0,1-5.18,4.5c-3.8,2.926-8.718,4.951-12.945,5a15.421,15.421,0,0,1-8.322-1.988,21.5,21.5,0,0,1-2.484-1.688c-1.079-.83-2.319-1.952-3.681-3.126a20.467,20.467,0,0,0-4.645-3.2,40.09,40.09,0,0,0-6.06-1.768,13.253,13.253,0,0,1-6.026-3.1,7.1,7.1,0,0,1-1.756-2.755,5.3,5.3,0,0,1-.061-2.985,4.678,4.678,0,0,1,2.68-3.236c1.022-.334,1.607-.075,1.587.045,0,.23-.538.332-1.175.795a4.2,4.2,0,0,0-1.527,2.739,3.851,3.851,0,0,0,.234,2,5.519,5.519,0,0,0,1.425,1.9A11.869,11.869,0,0,0,15.1-27.356a37.347,37.347,0,0,1,6.479,1.774,22.007,22.007,0,0,1,5.267,3.54,37.364,37.364,0,0,0,5.775,4.564,12.989,12.989,0,0,0,7.015,1.64c3.642-.043,7.994-1.748,11.656-4.4C53.158-21.524,54.8-23,56.484-24.408a13.62,13.62,0,0,1,5.332-2.969,6.643,6.643,0,0,1,4.311.281c.96.449,1.287.989,1.185,1.115" transform="translate(1698.564 692.776) rotate(-132)"/>
      <path id="Path_229" data-name="Path 229" d="M48.751-7.494c-1.362.428-9.329-26.022-10.341-29.256-.249-.808-.916-2.949-1.776-5.708-.889-2.761-1.711-6.195-3.359-8.9a9.4,9.4,0,0,0-3.034-3.2,7.943,7.943,0,0,0-3.556-1.2c-2.229-.188-3.487.865-3.7.591-.122-.133.035-.587.646-1.085a5.354,5.354,0,0,1,3.057-1.109,8.612,8.612,0,0,1,4.566,1.014,10.86,10.86,0,0,1,3.974,3.738c2.051,3.14,2.892,6.7,3.785,9.407l1.76,5.714c1.009,3.236,9.415,29.544,7.979,29.993" transform="translate(1673.648 693.911) rotate(-132)"/>
      <path id="Path_230" data-name="Path 230" d="M7.716-31.5c-.249.22-1.17-.612-.965-2.233A4.587,4.587,0,0,1,7.84-36.105a5.832,5.832,0,0,1,2.535-1.64,16.032,16.032,0,0,1,5.231-.551c1.46.018,2.58.1,2.983.124a47.978,47.978,0,0,1,7.451.977c3.191.681,6.042,1.8,5.871,2.384-.234.8-3.163.306-6.271-.1-3.106-.443-6.417-.759-7.192-.795-.389-.018-1.464-.073-2.867-.09a18.28,18.28,0,0,0-4.5.281,4.382,4.382,0,0,0-1.743.844,3.926,3.926,0,0,0-1.009,1.325c-.443.889-.271,1.654-.612,1.85" transform="translate(1697.741 693.226) rotate(-132)"/>
      <path id="Path_231" data-name="Path 231" d="M23.538-15.51c.169-.341,1.58.179,3.783.5a26.168,26.168,0,0,0,8.265-.1C41.7-16.122,47.794-19.3,49.152-19.864l4.77-2.257c2.29-1.013,5.353-2.576,8.85-2.343a9.7,9.7,0,0,1,4.568,1.609,15.234,15.234,0,0,1,2.973,2.592c1.483,1.684,2.2,2.924,1.986,3.118-.32.29-1.452-.632-3.1-1.96-1.635-1.3-3.954-2.989-6.56-3.043-2.618-.1-5.379,1.238-7.667,2.286l-4.764,2.233c-1.352.547-7.533,3.954-14.281,4.833a21.26,21.26,0,0,1-8.977-.628c-2.329-.74-3.579-1.78-3.412-2.086" transform="translate(1696.798 672.318) rotate(-132)"/>
      <path id="Path_232" data-name="Path 232" d="M72.9-17.986c-.357.1-.832-1.47-3.032-1.578a4.931,4.931,0,0,0-3.316.946A17.465,17.465,0,0,0,63.407-15.2a17.255,17.255,0,0,1-3.862,3.864,17.041,17.041,0,0,1-4.56,2.219A23.408,23.408,0,0,1,48.862-8.1a30.051,30.051,0,0,1-5.824-.347,35.855,35.855,0,0,1-9.129-2.684c-6.156-2.647-10.537-7.233-10.084-7.641.565-.612,5.131,3.269,10.987,5.506a38.89,38.89,0,0,0,8.593,2.355,28.513,28.513,0,0,0,5.357.339,21.4,21.4,0,0,0,5.461-.922,15.221,15.221,0,0,0,3.917-1.862,15.88,15.88,0,0,0,3.454-3.312,17.145,17.145,0,0,1,3.8-3.656,6.261,6.261,0,0,1,4.735-.838,3.868,3.868,0,0,1,2.737,1.917c.343.765.2,1.236.043,1.264" transform="translate(1698.891 670.083) rotate(-132)"/>
      <path id="Path_233" data-name="Path 233" d="M36.3-12c.065-.369.828-.432,1.778-.861A10.418,10.418,0,0,0,41.3-15.247c1.083-1.109,2.06-2.516,3.049-3.646a16.6,16.6,0,0,1,2.225-2.2,8.6,8.6,0,0,1,2.794-1.566,7.63,7.63,0,0,1,5.243.31,12.543,12.543,0,0,1,3.781,2.512c.848.824,1.281,1.472,1.095,1.709-.532.716-3.008-1.152-5.677-2.045a5.923,5.923,0,0,0-3.666-.118,6.487,6.487,0,0,0-2.013,1.118,15,15,0,0,0-1.888,1.9,38.94,38.94,0,0,1-3.318,3.7,8.428,8.428,0,0,1-4.454,2.282c-1.425.155-2.257-.371-2.176-.71" transform="translate(1689.651 662.221) rotate(-132)"/>
      <path id="Path_234" data-name="Path 234" d="M60.463,17.695c-.663.226-2.894-5.326-4.864-11.387A133.686,133.686,0,0,1,51.864-7.821a82.93,82.93,0,0,1-1.778-13.734c-.3-6.03.677-11.638,1.258-11.552.848.108.506,5.6,1.058,11.417A113.305,113.305,0,0,0,54.287-8.325c.269,1.427,1.8,7.886,3.546,13.954,1.709,6.071,3.354,11.823,2.629,12.066" transform="translate(1673.567 658.914) rotate(-132)"/>
      <path id="Path_235" data-name="Path 235" d="M46.649-32.358c-.7.122-1.046-.22-1.1-.653a1.572,1.572,0,0,1,.2-.9,1.468,1.468,0,0,1,.534-.691.809.809,0,0,1,1.154.285c.967,1.342.638,1.256.593,1.364-.045.086.078.306-1.381.6" transform="translate(1675.29 663.178) rotate(-132)"/>
      <path id="Path_236" data-name="Path 236" d="M47.583-29.038a.861.861,0,0,1-1.285-.318,1.887,1.887,0,0,1-.167-.983,1.738,1.738,0,0,1,.2-.918.852.852,0,0,1,1.179-.355c1.487.691,1.071,1.089,1.1,1.23-.027.128.267.628-1.02,1.344" transform="translate(1677.076 660.81) rotate(-132)"/>
      <path id="Path_237" data-name="Path 237" d="M49-34.27c-.7.108-1.066-.483-.993-1.148a2.538,2.538,0,0,1,.589-1.309,2.355,2.355,0,0,1,1.046-.848c.575-.232,1.187-.071,1.307.524.3,1.589-.249,1.6-.357,1.784-.147.135-.169.724-1.591,1" transform="translate(1671.611 663.311) rotate(-132)"/>
      <path id="Path_238" data-name="Path 238" d="M54.139-33.605c-1.05.963-1.817-.29-1.937-.422s-1.085-1.069-.186-1.894a1.178,1.178,0,0,1,2.007.222,1.324,1.324,0,0,1,.116,2.094" transform="translate(1670.181 659.881) rotate(-132)"/>
      <path id="Path_239" data-name="Path 239" d="M54.852-30.174c-1.358.438-1.4-.61-1.434-.726s-.4-.989.759-1.362c1.587-.512,1.556.487,1.593.6s.514,1.024-.918,1.485" transform="translate(1671.94 656.099) rotate(-132)"/>
      <path id="Path_240" data-name="Path 240" d="M49.5-32.151c-.084.377-.922.351-1.968.814a13.677,13.677,0,0,0-3.711,2.6,28.986,28.986,0,0,1-4.28,3.452,18.924,18.924,0,0,1-3.051,1.515,18.883,18.883,0,0,1-8.377,1.27c-3.742-.253-6.807-2.07-6.509-2.59.373-.757,3.34.306,6.619.273a20.333,20.333,0,0,0,7.355-1.25,17.861,17.861,0,0,0,2.643-1.338,41.7,41.7,0,0,0,4.1-3.122,10.285,10.285,0,0,1,4.823-2.384c1.562-.19,2.461.443,2.355.763" transform="translate(1691.994 679.151) rotate(-132)"/>
    </g>
    <g id="Group_6" data-name="Group 6" transform="translate(2291.664 -1404.924) rotate(89)">
      <path id="Path_241" data-name="Path 241" d="M54.487-141.981c-.579.42-1.352-.153-2.1-.779-.848-.767-1.487-1.344-1.648-1.489-.159-.129-.746-.6-1.637-1.317-.695-.6-1.352-1.234-1.089-1.788.355-.75,1.376-.634,2.323-.177a8.857,8.857,0,0,1,1.968,1.366,9.576,9.576,0,0,1,1.786,1.8c.659.907,1,1.939.394,2.38" transform="translate(1592.815 734.307) rotate(-132)"/>
      <path id="Path_242" data-name="Path 242" d="M137.99,9.728c-.391.139-2.272-5.016-6.145-12.423a213.14,213.14,0,0,0-16.52-26.455c-6.76-9.446-14.189-18.859-20.029-26.7-5.863-7.818-10.127-14.054-11.6-16.326A184.4,184.4,0,0,1,73.87-88.6a111.157,111.157,0,0,1-10.842-29.634c-2.243-10.814-2.159-21.7-.579-29.485.338-1.952.83-3.7,1.223-5.251.493-1.523.881-2.855,1.3-3.917.867-2.111,1.419-3.273,1.56-3.218.494.182-1.452,4.959-2.5,12.651A82.262,82.262,0,0,0,65.3-118.709,113.063,113.063,0,0,0,76.077-89.761a186.071,186.071,0,0,0,9.674,16.216c1.462,2.249,5.706,8.408,11.546,16.2,5.812,7.81,13.226,17.256,19.935,26.844A178.384,178.384,0,0,1,133.3-3.411c3.587,7.667,4.989,13.043,4.689,13.139" transform="translate(1575.488 732.631) rotate(-132)"/>
      <path id="Path_243" data-name="Path 243" d="M77.057-93c-.573.383-5.139-6.187-8.642-13.913a112.115,112.115,0,0,1-6.456-18.237,107.15,107.15,0,0,1-3.177-17.971c-.765-7.888-.171-15.312.406-15.278.863.029.895,7.341,1.9,15.035a133.768,133.768,0,0,0,3.259,17.584,137.387,137.387,0,0,0,6.2,17.918c3.2,7.659,7.164,14.444,6.509,14.862" transform="translate(1578.565 733.59) rotate(-132)"/>
      <path id="Path_244" data-name="Path 244" d="M67.99-110.261c-.65.251-2.376-3.624-3.148-8.049a44.565,44.565,0,0,1-.579-10.194,42.4,42.4,0,0,1,1.509-9.511c1.089-4.048,2.991-7.5,3.522-7.249.777.353-.485,3.9-1.272,7.808a59.073,59.073,0,0,0-1.293,9.074,60.137,60.137,0,0,0,.42,9.709c.485,4.235,1.56,8.145.84,8.412" transform="translate(1584.234 721.013) rotate(-132)"/>
      <path id="Path_245" data-name="Path 245" d="M67.585-127.407c-.143-.377,1.805-1.228,4.252-3.2a25.3,25.3,0,0,0,3.75-3.85,23.932,23.932,0,0,0,3.114-5.408,20.415,20.415,0,0,0,1.236-11.968,3.52,3.52,0,0,0-4.188-3.208,5.031,5.031,0,0,0-2.07.763,10.148,10.148,0,0,0-2.867,2.945,28.817,28.817,0,0,0-4.331,10.765,32.465,32.465,0,0,0-.12,10.989c.479,2.936,1.107,4.817.8,4.943-.351.155-1.489-1.578-2.365-4.607a27.949,27.949,0,0,1-.6-11.713,29.3,29.3,0,0,1,4.558-11.782,12.413,12.413,0,0,1,3.611-3.648,7.6,7.6,0,0,1,3.063-1.109,6.689,6.689,0,0,1,3.444.42,5.356,5.356,0,0,1,2.264,1.78,7.8,7.8,0,0,1,1.234,2.894,21.359,21.359,0,0,1,.341,6.589,23.209,23.209,0,0,1-1.86,6.862,23.8,23.8,0,0,1-3.66,5.8,21.873,21.873,0,0,1-4.4,3.85c-2.887,1.831-5.116,2.2-5.21,1.894" transform="translate(1575.674 729.173) rotate(-132)"/>
      <path id="Path_246" data-name="Path 246" d="M57.346-140.8c.457-.54,2.6.914,4.568,2.818a41.906,41.906,0,0,1,4.125,4.694,39.476,39.476,0,0,1,3.3,4.884c1.268,2.223,2.1,4.486,1.558,4.757-.748.383-2.09-1.521-3.518-3.516-1.4-2.013-2.908-4.127-3.287-4.6s-2.127-2.618-3.854-4.6c-1.707-2-3.379-3.86-2.888-4.439" transform="translate(1591.821 723.156) rotate(-132)"/>
      <path id="Path_247" data-name="Path 247" d="M75.074-123.562c-.241.294-1.913-.834-4.912-1.613-1.489-.422-3.3-.787-5.3-1.281a26.491,26.491,0,0,1-6.25-2.325,25.823,25.823,0,0,1-9.674-8.932,11.945,11.945,0,0,1-1.931-4.949,6.156,6.156,0,0,1,.5-3.4,5.231,5.231,0,0,1,2.39-2.453,7.184,7.184,0,0,1,5.33-.414,15.084,15.084,0,0,1,5.288,3.142,42.665,42.665,0,0,1,4.578,4.407,39.357,39.357,0,0,1,6.3,9.435c1.3,2.749,1.737,4.694,1.474,4.794-.763.312-3.8-6.856-9.484-12.657a45.869,45.869,0,0,0-4.421-4.078,13.215,13.215,0,0,0-4.433-2.649,4.756,4.756,0,0,0-3.491.224,2.722,2.722,0,0,0-1.3,1.311,3.583,3.583,0,0,0-.265,2.043,9.6,9.6,0,0,0,1.568,3.9,24.737,24.737,0,0,0,8.685,8.224c3.632,2.143,7.892,2.837,10.95,4.119,3.1,1.2,4.641,2.9,4.392,3.151" transform="translate(1592.487 735.896) rotate(-132)"/>
      <path id="Path_248" data-name="Path 248" d="M73.06-128.207c.714.106.524,3.407.7,6.886a63.428,63.428,0,0,0,.812,7.914,62.618,62.618,0,0,0,1.831,7.288c.932,3.128,2.135,5.975,1.586,6.268-.72.392-2.537-2.286-3.771-5.494a38.756,38.756,0,0,1-2.078-7.614,40.835,40.835,0,0,1-.714-8.332c.071-3.669.9-7.033,1.635-6.915" transform="translate(1591.792 704.86) rotate(-132)"/>
      <path id="Path_249" data-name="Path 249" d="M73.71-105.119c-.322,0-.494-2.374.524-5.759.954-3.389,3.165-7.539,5.08-11.744,1.892-4.178,3.053-8.832,2.5-12.419a10.855,10.855,0,0,0-1.478-4.256c-.632-.914-1.148-.977-1.446-.993a2.753,2.753,0,0,0-1.807.744,11.879,11.879,0,0,0-2.651,3.4A22.9,22.9,0,0,0,71.916-124.5a55.886,55.886,0,0,0,1.858,11.464c.755,3.067,1.219,5.106.92,5.2-.387.124-1.338-1.739-2.457-4.745A42.134,42.134,0,0,1,69.6-124.4a24.16,24.16,0,0,1,2.645-12.943,13.98,13.98,0,0,1,3.306-4.162,5.257,5.257,0,0,1,3.444-1.254,3.791,3.791,0,0,1,1.639.438,4.936,4.936,0,0,1,1.748,1.615,13.056,13.056,0,0,1,1.9,5.316c.644,4.315-.75,9.407-2.847,13.742-2.117,4.327-4.429,8.21-5.671,11.311-1.3,3.067-1.646,5.257-2.056,5.222" transform="translate(1582.578 715.572) rotate(-132)"/>
      <path id="Path_250" data-name="Path 250" d="M88.889-112.658c-.312.269-1.98-1.76-5.5-3.306-3.5-1.607-8.7-2.394-14.209-2.453-5.494-.116-11.46-.306-16.108-2.2a5.67,5.67,0,0,1-3.134-2.608,4.777,4.777,0,0,1-.177-3.618,7.647,7.647,0,0,1,2.353-3.393,9.243,9.243,0,0,1,3.41-1.774,14.988,14.988,0,0,1,6.126-.481,32.74,32.74,0,0,1,14.238,5.757,35.522,35.522,0,0,1,9.857,10.276c2.027,3.25,2.7,5.679,2.459,5.775-.418.188-1.55-1.974-3.785-4.872a40.456,40.456,0,0,0-9.829-9.258,32.045,32.045,0,0,0-13.2-5.2c-4.093-.52-7.031.987-7.671,1.662a5.253,5.253,0,0,0-1.587,2.27c-.394,1.207-.112,2.388,1.888,3.153,4.048,1.666,9.7,1.947,15.259,2.176,5.571.177,11.2,1.23,14.837,3.332,3.7,2.056,5.061,4.607,4.782,4.76" transform="translate(1602.769 723.367) rotate(-132)"/>
      <path id="Path_251" data-name="Path 251" d="M63.42-109.171c-.165-.675,4.127-1.9,8.84-1.85A40.182,40.182,0,0,1,82.844-109.5a38.412,38.412,0,0,1,9.307,3.885c3.824,2.178,6.717,5.143,6.319,5.569-.567.644-3.711-1.711-7.433-3.532a48.3,48.3,0,0,0-8.848-3.538,49.967,49.967,0,0,0-9.982-1.574c-4.429-.29-8.624.273-8.787-.483" transform="translate(1609.228 699.511) rotate(-132)"/>
      <path id="Path_252" data-name="Path 252" d="M95.43-108.45c-.037.424-2.708.23-6.566,1.25-3.877.963-8.742,3.426-13.773,6.128-5.033,2.661-10.561,5.333-15.6,5.93a12.687,12.687,0,0,1-6.721-.54,6.752,6.752,0,0,1-3.391-2.686,5.648,5.648,0,0,1-.634-4.268,9.6,9.6,0,0,1,3.852-5.333,18.853,18.853,0,0,1,7.172-3.073,58.775,58.775,0,0,1,8.073-1.071c5.371-.471,10.74-.259,14.562.8,3.846,1,5.987,2.553,5.85,2.773-.21.408-2.5-.616-6.189-1.207a52.7,52.7,0,0,0-14.011-.057c-5.255.51-10.706,1.3-13.964,3.832a7.192,7.192,0,0,0-2.926,3.9,3.127,3.127,0,0,0,.326,2.416A4.236,4.236,0,0,0,53.669-98a10.321,10.321,0,0,0,5.471.383c4.533-.518,9.806-2.983,14.88-5.534,5.069-2.576,10.274-4.978,14.5-5.636,4.215-.714,6.976.037,6.913.336" transform="translate(1617.834 710.977) rotate(-132)"/>
      <path id="Path_253" data-name="Path 253" d="M81.2-117.748c.7.161.4,2.777.286,5.54-.155,2.763-.1,5.687-.051,6.324.027.638.245,3.375.646,5.938.353,2.571.867,4.976.279,5.175-.779.269-1.919-2.054-2.553-4.723a32.639,32.639,0,0,1-.842-6.246,34.5,34.5,0,0,1,.194-6.67c.381-2.9,1.317-5.51,2.041-5.337" transform="translate(1594.453 692.783) rotate(-132)"/>
      <path id="Path_254" data-name="Path 254" d="M81.927-91.045c-.275.055-.9-2.576.179-6.4,1-3.834,3.789-8.314,6.609-12.655a58.993,58.993,0,0,0,3.793-6.627,21.139,21.139,0,0,0,1.974-6.4,7.421,7.421,0,0,0-.859-4.666,5.125,5.125,0,0,0-1.894-1.8,3.519,3.519,0,0,0-2.268-.416,6.22,6.22,0,0,0-3.538,2.551,29.265,29.265,0,0,0-3.336,5.477,30.024,30.024,0,0,0-2.125,6.678,31.894,31.894,0,0,0,.108,12.625c.72,3.348,1.648,5.437,1.338,5.591-.326.181-1.758-1.733-2.89-5.188a28.942,28.942,0,0,1-.836-13.442,30.524,30.524,0,0,1,2.17-7.27,30.363,30.363,0,0,1,3.626-6.028,8.573,8.573,0,0,1,5.061-3.442,5.975,5.975,0,0,1,3.856.683,7.654,7.654,0,0,1,2.832,2.659,9.838,9.838,0,0,1,1.244,6.236c-.534,4.792-3.342,9.747-6.3,14.062-2.965,4.331-5.761,8.448-7.025,11.882-1.336,3.4-1.27,5.891-1.721,5.9" transform="translate(1584.603 703.115) rotate(-132)"/>
      <path id="Path_255" data-name="Path 255" d="M107.464-90.654c-.334.23-1.635-2-5.037-3.334A15.467,15.467,0,0,0,96.343-95a30.337,30.337,0,0,0-7.317,1.325c-4.992,1.48-10.4,3.487-15.239,3.34a17.736,17.736,0,0,1-3.369-.367,6.2,6.2,0,0,1-2.943-1.409,4.782,4.782,0,0,1-1.379-2.327A5.673,5.673,0,0,1,65.9-96.1a6.459,6.459,0,0,1,1.291-3.73,10.3,10.3,0,0,1,5.122-3.357,28.6,28.6,0,0,1,14.805-.506,39.807,39.807,0,0,1,12.633,5.267c3.079,1.978,4.806,3.627,4.637,3.849-.263.355-2.278-.859-5.436-2.458a47.651,47.651,0,0,0-12.3-4.384,27.391,27.391,0,0,0-13.546.595,7.939,7.939,0,0,0-3.932,2.492,3.983,3.983,0,0,0-.8,2.294,2.732,2.732,0,0,0,.779,2.095c.657.708,2.6,1.067,4.668,1.113a26.819,26.819,0,0,0,6.919-.942c2.463-.608,5.029-1.468,7.661-2.155a29.87,29.87,0,0,1,7.918-1.14,15.529,15.529,0,0,1,6.77,1.6,10.13,10.13,0,0,1,3.719,3.1c.655.969.8,1.627.653,1.709" transform="translate(1612.348 693.484) rotate(-132)"/>
      <path id="Path_256" data-name="Path 256" d="M94.3-70.708c-.177.232-2.575-1.5-4.3-5.518a17.959,17.959,0,0,1-1.366-7.3,18.885,18.885,0,0,1,2.272-8.4c1.342-2.651,3.014-5.047,4.372-7.394a21.094,21.094,0,0,0,2.731-6.829,10.359,10.359,0,0,0-.265-5.445A6.323,6.323,0,0,0,96.2-114.11a1.734,1.734,0,0,0-1.9-.449c-.983.369-2.117,1.815-3.079,3.8a38.034,38.034,0,0,0-4.2,14.156,41.316,41.316,0,0,0,1.056,13.884c.911,3.65,1.921,5.936,1.609,6.089-.33.177-1.833-1.925-3.149-5.64A36.472,36.472,0,0,1,84.7-96.8a38.411,38.411,0,0,1,4.307-15.127c1.016-2,2.282-4.078,4.352-4.939a4.046,4.046,0,0,1,2.93-.057,4.948,4.948,0,0,1,1.56.973,8.76,8.76,0,0,1,2.231,3.509,12.773,12.773,0,0,1,.383,6.746A23.051,23.051,0,0,1,97.4-98.076c-1.448,2.447-3.13,4.794-4.423,7.221A17.507,17.507,0,0,0,90.7-83.441a18.072,18.072,0,0,0,.816,6.65c1.224,3.781,3.1,5.8,2.777,6.083" transform="translate(1591.193 688.315) rotate(-132)"/>
      <path id="Path_257" data-name="Path 257" d="M73.748-88.592c-.133-.288,1.336-1.285,3.881-2.2a29.676,29.676,0,0,1,9.923-1.56,34.821,34.821,0,0,1,10.592,1.741A35.006,35.006,0,0,1,104.034-88a32.777,32.777,0,0,1,5.071,3.469,41.429,41.429,0,0,1,6.78,7.359c4.054,5.632,6.791,11.42,6.315,11.693-.765.455-4.064-5.041-8.161-10.286a45.64,45.64,0,0,0-6.527-6.846,31.453,31.453,0,0,0-4.678-3.228,33.7,33.7,0,0,0-5.473-2.4,36.388,36.388,0,0,0-9.853-1.778,39.1,39.1,0,0,0-9.442.789c-2.508.514-4.15,1.011-4.317.634" transform="translate(1615.933 680.106) rotate(-132)"/>
      <path id="Path_258" data-name="Path 258" d="M98.873-70.59c-.595.369-2.321-1.945-3.385-4.8a26.851,26.851,0,0,1-1.534-6.748,25.387,25.387,0,0,1,.09-6.525c.383-2.82,1.456-5.275,2.021-5.09.808.251.39,2.71.285,5.324a39.65,39.65,0,0,0,.063,6.024,40.232,40.232,0,0,0,1.285,6.26c.744,2.7,1.829,5.163,1.175,5.559" transform="translate(1602.015 666.682) rotate(-132)"/>
      <path id="Path_259" data-name="Path 259" d="M95.686-75.745c-.318.073-.816-1.941.434-4.578A15.231,15.231,0,0,1,98.9-84.237c1.215-1.281,2.628-2.433,3.962-3.624a20.074,20.074,0,0,0,3.48-3.746,8.171,8.171,0,0,0,1.4-4.038,5.265,5.265,0,0,0-.669-3.064,3.732,3.732,0,0,0-1.192-1.219,4.037,4.037,0,0,0-1.584-.553,5.912,5.912,0,0,0-3.01.453c-2.308.824-4.107,3.678-4.817,6.824-1.527,6.417-.5,12.81-1.109,12.886-.789.21-2.541-6.3-1.154-13.4a14.728,14.728,0,0,1,2.029-5.142,9.046,9.046,0,0,1,4.076-3.465,8.292,8.292,0,0,1,4.313-.622,6.568,6.568,0,0,1,2.556.912,6.268,6.268,0,0,1,2.007,2.013,7.676,7.676,0,0,1,1.046,4.518,10.394,10.394,0,0,1-1.86,5.277,21.014,21.014,0,0,1-3.99,4.133c-1.431,1.183-2.861,2.249-4.031,3.324a17.445,17.445,0,0,0-2.81,3.222c-1.374,2.064-1.45,3.8-1.858,3.8" transform="translate(1595.465 672.701) rotate(-132)"/>
      <path id="Path_260" data-name="Path 260" d="M90.561-102.666c-.595.422-3.179-2.726-6.4-5.557a56.86,56.86,0,0,0-7.808-5.895,55.84,55.84,0,0,0-8.281-4.1c-3.711-1.542-7.412-2.421-7.309-3.043.12-.8,4.1-.51,8.1.865a41.393,41.393,0,0,1,8.773,4.166,43.468,43.468,0,0,1,8.124,6.307c3.216,3.179,5.406,6.844,4.8,7.258" transform="translate(1603.297 708.285) rotate(-132)"/>
      <path id="Path_261" data-name="Path 261" d="M68.865-145.746c-1.256-.589,1.23-5.632,1.44-6.3.292-.632,1.974-5.594,3.1-5.229,1.621.526-.5,5.494-.8,6.132-.212.673-2.343,6.052-3.744,5.4" transform="translate(1572.859 725.659) rotate(-132)"/>
      <path id="Path_262" data-name="Path 262" d="M81.732-119c-.324.19-.922-.424-1.911-1.156a19.263,19.263,0,0,0-4.036-2.268c-3.265-1.326-7.09-2.551-7.851-2.837-.808-.257-4.264-1.4-7.557-2.106-3.287-.771-6.446-.867-6.5-1.474-.084-.832,3.332-1.372,6.9-.81a45.233,45.233,0,0,1,7.922,2.039,67.6,67.6,0,0,1,8.069,3.069,12.31,12.31,0,0,1,4.2,3.236c.891,1.166,1.077,2.135.767,2.308" transform="translate(1601.884 718.474) rotate(-132)"/>
      <path id="Path_263" data-name="Path 263" d="M71.915-110.935c-1.425-.086-.424-11.991-.336-13.453s.679-12.574,1.9-12.5c1.664.1.659,11.187.571,12.649s-.63,13.4-2.133,13.306" transform="translate(1585.747 710.631) rotate(-132)"/>
      <path id="Path_264" data-name="Path 264" d="M62.541-107.857c.106.706-1.366,1.223-2.916,1.7-1.676.487-3.208.934-3.563,1.038s-1.717.571-3.324,1.113c-1.454.453-2.859.85-3.14.3-.377-.74.808-1.717,2.247-2.443a20.981,20.981,0,0,1,3.45-1.325,22.7,22.7,0,0,1,3.8-.96c1.7-.255,3.338-.169,3.45.573" transform="translate(1619.933 707.856) rotate(-132)"/>
      <path id="Path_265" data-name="Path 265" d="M81.315-114.694c-.669-.235-.2-2.412.6-4.623a49.674,49.674,0,0,1,2.143-4.921,45.482,45.482,0,0,1,2.4-4.462c1.156-1.87,2.463-3.479,2.983-3.165.714.434-.041,2.327-.944,4.27s-1.978,3.942-2.2,4.421-1.181,2.531-2.217,4.749c-1.007,2.056-2.045,3.983-2.757,3.732" transform="translate(1582.977 700.385) rotate(-132)"/>
      <path id="Path_266" data-name="Path 266" d="M97.484-97.809c-.412.6-2.843-.679-5.671-1.3a35.48,35.48,0,0,0-6.609-.873c-.679-.055-3.622-.008-6.434.157-2.812.135-5.5.255-5.585-.359-.112-.816,2.488-1.548,5.363-1.951a37.082,37.082,0,0,1,6.723-.32,25.7,25.7,0,0,1,7.168,1.093c3.1.965,5.485,2.955,5.045,3.556" transform="translate(1609.039 687.036) rotate(-132)"/>
      <path id="Path_267" data-name="Path 267" d="M87.275-87.8c-.695.122-1.391-2.276-1.574-4.91a31.836,31.836,0,0,1,.192-6.01A29.853,29.853,0,0,1,87-104.288c.706-2.363,1.809-4.405,2.368-4.182.785.3.3,2.461-.118,4.743-.463,2.272-.846,4.7-.9,5.269-.071.571-.275,3.179-.316,5.665-.075,2.483-.014,4.859-.761,4.989" transform="translate(1596.739 681.991) rotate(-132)"/>
    </g>
  </g>
</svg>
